HIERARCHY
ROOT Hips
{
	OFFSET 0.00000 0.00000 0.00000
	CHANNELS 6 Xposition Yposition Zposition Zrotation Yrotation Xrotation 
	JOINT LHipJoint
	{
		OFFSET 0 0 0
		CHANNELS 3 Zrotation Yrotation Xrotation
		JOINT LeftUpLeg
		{
			OFFSET 1.53794 -1.55850 0.93568
			CHANNELS 3 Zrotation Yrotation Xrotation
			JOINT LeftLeg
			{
				OFFSET 2.28545 -6.27922 0.00000
				CHANNELS 3 Zrotation Yrotation Xrotation
				JOINT LeftFoot
				{
					OFFSET 2.37329 -6.52057 0.00000
					CHANNELS 3 Zrotation Yrotation Xrotation
					JOINT LeftToeBase
					{
						OFFSET 0.14846 -0.40788 2.09160
						CHANNELS 3 Zrotation Yrotation Xrotation
						End Site
						{
							OFFSET 0.00000 -0.00000 1.07536
						}
					}
				}
			}
		}
	}
	JOINT RHipJoint
	{
		OFFSET 0 0 0
		CHANNELS 3 Zrotation Yrotation Xrotation
		JOINT RightUpLeg
		{
			OFFSET -1.78290 -1.55850 0.93568
			CHANNELS 3 Zrotation Yrotation Xrotation
			JOINT RightLeg
			{
				OFFSET -2.24144 -6.15831 0.00000
				CHANNELS 3 Zrotation Yrotation Xrotation
				JOINT RightFoot
				{
					OFFSET -2.35091 -6.45907 0.00000
					CHANNELS 3 Zrotation Yrotation Xrotation
					JOINT RightToeBase
					{
						OFFSET -0.14428 -0.39641 2.07944
						CHANNELS 3 Zrotation Yrotation Xrotation
						End Site
						{
							OFFSET -0.00000 -0.00000 1.06864
						}
					}
				}
			}
		}
	}
	JOINT LowerBack
	{
		OFFSET 0 0 0
		CHANNELS 3 Zrotation Yrotation Xrotation
		JOINT Spine
		{
			OFFSET -0.08841 2.11430 -0.15818
			CHANNELS 3 Zrotation Yrotation Xrotation
			JOINT Spine1
			{
				OFFSET -0.00033 2.12605 -0.08097
				CHANNELS 3 Zrotation Yrotation Xrotation
				JOINT Neck
				{
					OFFSET 0 0 0
					CHANNELS 3 Zrotation Yrotation Xrotation
					JOINT Neck1
					{
						OFFSET 0.04431 1.59447 0.43193
						CHANNELS 3 Zrotation Yrotation Xrotation
						JOINT Head
						{
							OFFSET 0.00455 1.62017 -0.58852
							CHANNELS 3 Zrotation Yrotation Xrotation
							End Site
							{
								OFFSET -0.00920 1.72955 -0.25850
							}
						}
					}
				}
				JOINT LeftShoulder
				{
					OFFSET 0 0 0
					CHANNELS 3 Zrotation Yrotation Xrotation
					JOINT LeftArm
					{
						OFFSET 2.86490 1.49927 -0.33774
						CHANNELS 3 Zrotation Yrotation Xrotation
						JOINT LeftForeArm
						{
							OFFSET 4.87408 -0.00000 0.00000
							CHANNELS 3 Zrotation Yrotation Xrotation
							JOINT LeftHand
							{
								OFFSET 2.76729 -0.00000 0.00000
								CHANNELS 3 Zrotation Yrotation Xrotation
								JOINT LeftFingerBase
								{
									OFFSET 0 0 0
									CHANNELS 3 Zrotation Yrotation Xrotation
									JOINT LeftHandIndex1
									{
										OFFSET 0.98922 -0.00000 0.00000
										CHANNELS 3 Zrotation Yrotation Xrotation
										End Site
										{
											OFFSET 0.79753 -0.00000 0.00000
										}
									}
								}
								JOINT LThumb
								{
									OFFSET 0 0 0
									CHANNELS 3 Zrotation Yrotation Xrotation
									End Site
									{
										OFFSET 0.80972 -0.00000 0.80972
									}
								}
							}
						}
					}
				}
				JOINT RightShoulder
				{
					OFFSET 0 0 0
					CHANNELS 3 Zrotation Yrotation Xrotation
					JOINT RightArm
					{
						OFFSET -2.94414 1.45463 -0.25291
						CHANNELS 3 Zrotation Yrotation Xrotation
						JOINT RightForeArm
						{
							OFFSET -4.71404 -0.00000 0.00000
							CHANNELS 3 Zrotation Yrotation Xrotation
							JOINT RightHand
							{
								OFFSET -2.83468 -0.00000 0.00000
								CHANNELS 3 Zrotation Yrotation Xrotation
								JOINT RightFingerBase
								{
									OFFSET 0 0 0
									CHANNELS 3 Zrotation Yrotation Xrotation
									JOINT RightHandIndex1
									{
										OFFSET -0.86820 -0.00000 0.00000
										CHANNELS 3 Zrotation Yrotation Xrotation
										End Site
										{
											OFFSET -0.69996 -0.00000 0.00000
										}
									}
								}
								JOINT RThumb
								{
									OFFSET 0 0 0
									CHANNELS 3 Zrotation Yrotation Xrotation
									End Site
									{
										OFFSET -0.71065 -0.00000 0.71065
									}
								}
							}
						}
					}
				}
			}
		}
	}
}
MOTION
Frames: 6
Frame Time: .0083333
-12.6561 16.3639 31.7888 0 0 0 0 0 0 -21 0 0 0 0 0 0 0 0 0 0 0 0 0 0 21 0 0 0 0 0 0 0 0 0 0 0 0 0 0 0 0 0 0 0 0 0 0 -16 0 0 21 0 0 11 0 0 0 -8 0 0 0 0 0 0 0 0 0 0 0 0 0 0 0 0 0 0 0 0 8 0 0 0 0 0 0 0 0 0 0 0 0 0 0 0 0 0
-12.6561 16.3639 31.7888 177.9620 -0.8454 -170.5540 0.0000 0.0000 0.0000 -15.2964 -16.5337 -39.1851 7.8084 15.9765 51.8697 -0.6162 20.4918 8.7780 0.1775 -2.7139 -7.4831 0.0000 0.0000 0.0000 24.8156 3.0946 2.9078 -1.9188 -8.6949 24.8456 0.1824 -11.6636 5.2299 -1.9156 8.6880 -24.8240 -2.2358 3.7116 -0.2473 -0.8947 4.9537 0.5604 0.3639 2.4611 0.6025 -1.6852 -2.8654 -35.7684 1.3050 -6.8262 40.6394 -1.3663 -3.1085 24.4361 0.0000 -0.0000 0.0000 -71.7141 34.3351 50.2212 103.4572 -59.3045 -71.6271 -0.0000 -0.0000 19.6619 13.7938 3.2104 0.7877 -7.1250 0.0000 -0.0000 -10.4069 33.1548 3.0644 0.0000 -0.0000 0.0000 78.6945 -8.4602 48.0959 -93.0211 59.9655 -62.6160 0.0000 0.0000 9.0741 -14.6649 -0.4017 0.1051 7.1250 -0.0000 -0.0000 9.3899 -30.3223 3.4056
-12.6432 16.4674 31.4407 177.6840 -1.1598 -170.3870 0.0000 0.0000 0.0000 -15.5854 -16.7877 -38.4669 6.5260 14.9194 47.0578 -0.4221 19.2215 9.5201 0.1973 -2.8601 -7.8896 0.0000 0.0000 0.0000 24.5999 2.5675 4.1463 -1.6895 -8.1869 23.2833 -0.0139 -12.5624 8.9980 -1.7246 8.2672 -23.5286 -2.5567 3.8816 -0.6414 -1.1545 5.1918 0.5730 0.3071 2.5735 0.8262 -1.9023 -3.1658 -34.1909 1.9224 -7.5094 40.1831 -1.1245 -3.3532 23.5515 -0.0000 0.0000 0.0000 -71.0819 34.6456 50.2389 103.6411 -59.2851 -71.7852 -0.0000 -0.0000 19.7471 13.5693 1.9821 0.4783 -7.1250 0.0000 -0.0000 -10.4295 31.9051 3.3909 -0.0000 0.0000 0.0000 78.6564 -9.0279 47.9399 -93.4285 59.9555 -62.9687 0.0000 0.0000 9.8740 -14.4389 -0.0160 0.0041 7.1250 -0.0000 -0.0000 9.5283 -29.9262 3.5485
-12.6356 16.5613 31.0859 177.2570 -1.5170 -170.1480 0.0000 0.0000 0.0000 -16.0267 -17.1960 -37.7936 5.4584 13.8821 42.7673 -0.2103 17.7694 10.4213 0.2122 -2.9658 -8.1835 0.0000 0.0000 0.0000 24.2116 2.1620 5.0695 -1.5603 -7.8830 22.3592 -0.2517 -13.4209 12.2759 -1.4881 7.7067 -21.8268 -2.7785 4.0199 -1.0932 -1.6335 5.3850 0.4936 -0.0250 2.6619 1.0186 -1.8574 -3.4125 -34.0533 2.2894 -8.2031 40.2521 -1.1423 -3.5422 23.6286 -0.0000 0.0000 0.0000 -70.0391 34.9922 51.0166 104.6422 -59.1742 -72.6453 -0.0000 -0.0000 19.3422 13.7679 2.8540 0.6990 -7.1250 0.0000 -0.0000 -10.3809 32.7931 3.1487 -0.0000 0.0000 0.0000 78.8822 -9.6043 47.7725 -93.4289 59.9555 -62.9691 0.0000 0.0000 10.0332 -14.5248 0.3666 -0.0950 7.1250 -0.0000 -0.0000 9.4245 -29.5373 3.5975
-12.6293 16.6556 30.7313 177.0680 -1.7365 -169.9190 0.0000 0.0000 0.0000 -16.3136 -17.2500 -36.9337 4.4577 12.7457 38.4240 0.0318 16.1855 11.6963 0.2420 -3.1655 -8.7400 0.0000 0.0000 0.0000 24.0144 1.6964 5.8618 -1.4608 -7.6389 21.6225 -0.4964 -14.4338 15.1101 -1.0983 6.6595 -18.7103 -3.0839 4.1122 -1.6421 -1.7611 5.5321 0.4538 0.0564 2.7277 1.2659 -1.8189 -3.5470 -34.0049 2.3197 -8.5482 40.4170 -1.2469 -3.6579 23.7717 0.0000 -0.0000 0.0000 -69.7005 35.1098 51.6136 105.3928 -59.0855 -73.2896 -0.0000 -0.0000 18.8531 13.9961 3.7496 0.9339 -7.1250 0.0000 -0.0000 -10.3164 33.7082 2.8966 0.0000 -0.0000 0.0000 78.6761 -10.3451 47.5267 -92.9740 59.9666 -62.5753 0.0000 0.0000 9.6982 -14.2564 0.4042 -0.1027 7.1250 -0.0000 -0.0000 9.6295 -29.4966 3.6872
-12.6245 16.7263 30.3815 176.8570 -1.9988 -169.6810 0.0000 0.0000 0.0000 -16.5934 -17.3944 -36.1233 3.5920 11.5967 34.3197 0.2160 14.8206 12.6811 0.2809 -3.4090 -9.4195 0.0000 0.0000 0.0000 23.8257 1.3173 6.3672 -1.4361 -7.5768 21.4358 -0.7614 -15.4315 17.7214 -0.8288 5.8082 -16.2290 -3.3016 4.1972 -2.1269 -1.9859 5.6649 0.3856 -0.0145 2.7861 1.4658 -1.7595 -3.6703 -33.9902 2.4556 -8.9455 40.5721 -1.3143 -3.7708 23.9352 0.0000 -0.0000 0.0000 -69.1678 35.2927 52.1518 106.1588 -58.9900 -73.9465 -0.0000 -0.0000 18.4141 14.1440 4.3382 1.0920 -7.1250 0.0000 -0.0000 -10.2781 34.3108 2.7331 0.0000 -0.0000 0.0000 78.6395 -11.0442 47.3322 -92.5234 59.9759 -62.1851 0.0000 0.0000 9.6686 -14.0725 0.5399 -0.1353 7.1250 -0.0000 -0.0000 9.7590 -29.3570 3.7710
